<svg width="18" height="17" viewBox="0 0 18 17" fill="none" xmlns="http://www.w3.org/2000/svg">
<path d="M1.77825 1.8121C0.0738661 3.57882 0.0740265 6.469 1.77807 8.23474C1.77809 8.23475 1.77811 8.23477 1.77813 8.23479L8.64018 15.3472L9.00001 15.7201L9.35984 15.3472L16.2217 8.23495C16.2218 8.23493 16.2218 8.23491 16.2218 8.23488C17.9259 6.46917 17.9263 3.57885 16.2217 1.81212C15.3998 0.96018 14.3191 0.5 13.1723 0.5C12.0253 0.5 10.9445 0.960097 10.1222 1.81195L10.1221 1.81207L9.00001 2.97535L7.87799 1.81217L7.87794 1.81212C7.05604 0.960307 5.97489 0.5 4.82806 0.5C3.68123 0.5 2.60004 0.960246 1.77825 1.8121ZM1.77825 1.8121L2.13017 2.15161L1.77825 1.8121Z" stroke="black"/>
</svg>
